Clean Scene Releases    http://bitxtre.me/


-------------------------------------------------------------------------------------
                                   nfo




              *********** ****    ****      ***      ******** *********** ****    *** **********
           *+*     +*+*+* *+*+*+   *+* *+*   *+*    *+*    *+*     *+*+*   *+* *+*        
           +*+     +*+ +*+*+ +*+  +*+   +*+  +*+           +*+     *+*+*+  +*+ +*+        
           +$+     +$+  +*+  +$+ +$++*++$++* *$*           +$+     +$+ +*+ +$+ +$++*++$  
           +$+     +$+       +$+ +$+     +$+ +$+   +$+$    +$+     +$+  +$+$+$ +$+        
           $+$     $+$       $+$ $+$     $+$ $+$    $+$    $+$     $+$   $+$+$ $+$        
       $$$$$$$$$$$ $$$       $$$ $$$     $$$  $$$$$$$$ $$$$$$$$$$$ $$$    $$$$ $$$$$$$$$$     
                                                



                           Another Fine Release Brought to you from - IMAGiNE                   
                                                 

********************************************************************************************************************                                
                               The Last Exorcism SCR XViD - IMAGiNE
********************************************************************************************************************

Ripper ...........: IMAGiNE                                        IMDB Rating.......:6.0/10                             
Video Codec.......: XVID                                         Release Date......:30/11/10
Audio Codec.......:MP3                                           Theatre Date......:27/08/10
Audio Bitrate.....:128                                              Runtime.......:1h 23mn
Subtitles.........:NIL                                                 Language..........:ENGLISH
Resolution...... 624 x 336                                      IMDb URL..........:http://www.imdb.com/title/tt1320244/


[color=yellow]DETAILS:[/color]

Video
ID                               : 0
Format                           : MPEG-4 Visual
Format profile                   : Advanced Simple@L5
Format settings, BVOP            : Yes
Format settings, QPel            : No
Format settings, GMC             : No warppoints
Format settings, Matrix          : Default (H.263)
Muxing mode                      : Packed bitstream
Codec ID                         : XVID
Codec ID/Hint                    : XviD
Duration                         : 1h 23mn
Bit rate                         : 1 047 Kbps
Width                            : 624 pixels
Height                           : 336 pixels
Display aspect ratio             : 1.857
Frame rate                       : 23.976 fps
Resolution                       : 24 bits
Colorimetry                      : 4:2:0
Scan type                        : Progressive
Bits/(Pixel*Frame)               : 0.208
Stream size                      : 626 MiB (89%)
Writing library                  : XviD 1.1.2 (UTC 2006-11-01)

Audio
ID                               : 1
Format                           : MPEG Audio
Format version                   : Version 1
Format profile                   : Layer 3
Codec ID                         : 55
Codec ID/Hint                    : MP3
Duration                         : 1h 23mn
Bit rate mode                    : Variable
Bit rate                         : 123 Kbps
Nominal bit rate                 : 128 Kbps
Channel(s)                       : 2 channels
Sampling rate                    : 48.0 KHz
Resolution                       : 16 bits
Stream size                      : 73.3 MiB (10%)
Alignment                        : Aligned on interleaves
Interleave, duration             : 24 ms (0.58 video frame)
Interleave, preload duration     : 514 ms
Writing library                  : LAME3.90.
Encoding settings                : -m j -V 4 -q 2 -lowpass 17.6 --abr 128


[color=yellow]SOURCES:[/color]

VIDEO:The.Last.Exorcism.DVDSCR.XviD-TWiZTED
AUDIO:The.Last.Exorcism.DVDSCR.XviD-TWiZTED

[color=yellow]NOTES:[/color]

IMAGiNE bringing you another release.....The Last Exorcism 2010

Well first off we retagged this a screener as we don't think it's a dvdscreener or certainly don't
look like one,but we could be wrong ....could have just beed ripped poorly or whatever ,so without
see the original source files it's hard to say.
Anyway for this we thought the colours were off and was also too strong....so we made a script and added lines
into it to fix this.
Audio is just muxed straight of the source we used.
Still no overly happy with the colouring but does look alot better in our opinion.

Enjoy

[color=yellow]SCREENS:[/color]

[IMG]http://img207.imageshack.us/img207/9295/vlcsnap192270.png[/IMG]
[IMG]http://img715.imageshack.us/img715/1566/vlcsnap192831.png[/IMG]
[IMG]http://img101.imageshack.us/img101/4026/vlcsnap201613.png[/IMG]

[color=yellow]GREETS:[/color]

FLAWL3SS,ViSiON,FUSiON,Rx,SecretMyth,BirdFlu,ELEKTRI4KA and Autotron
And to all the other p2p grps past and present 

[COLOR=RED]Looking for these,syncers,cammers,silver supplier.....Have anything to offer????......
Contact us imaginegroup@hushmail.com[/COLOR]

